<?xml version="1.0" encoding="UTF-8"?>
<svg width="74px" height="38px" viewBox="0 0 74 38" version="1.1" xmlns="http://www.w3.org/2000/svg" xmlns:xlink="http://www.w3.org/1999/xlink">
    <!-- Generator: Sketch 41 (35326) - http://www.bohemiancoding.com/sketch -->
    <title>LOGO</title>
    <desc>Created with Sketch.</desc>
    <defs></defs>
    <g id="Page-1" stroke="none" stroke-width="1" fill="none" fill-rule="evenodd">
        <g id="2.0-Dress-Game" transform="translate(-105.000000, -163.000000)" fill="#1A1918">
            <g id="App" transform="translate(0.000000, 128.000000)">
                <g id="NAV">
                    <path d="M150.743947,69.1090934 C150.730928,69.8455786 150.396251,70.6975865 149.935063,71.2773824 C149.193385,72.2096917 148.091517,72.41545 146.952998,71.9592296 C145.866633,71.5239311 145.339895,70.7085744 145.342679,69.5166212 C145.355248,64.2272634 145.338841,58.9378303 145.35314,53.6484725 C145.357882,51.8994518 146.243305,51.0209526 147.995486,51.0177918 C154.333203,51.0064276 160.670995,51.0022131 167.008711,51.0206516 C168.636791,51.0253929 170.141822,50.7400858 171.345666,49.5537771 C172.872898,48.0488215 173.264019,46.6033206 172.72825,44.1975892 C172.036619,42.1896773 170.537383,41.0184957 168.386028,40.7742047 C168.008227,40.7313823 167.625008,40.7224265 167.244272,40.7223512 C150.280051,40.7197924 133.315829,40.6953332 116.351983,40.7687108 C115.053915,40.77428 113.589674,41.2095032 112.500074,41.9085094 C110.642228,43.1005378 110.122188,45.2690526 110.768814,47.3571154 C111.397679,49.3879061 113.322128,50.9271046 115.596834,50.9654867 C120.074748,51.0410468 124.554544,51.0135773 129.033588,51.0104916 C133.550787,51.0073308 137.427608,53.5848033 138.941745,57.6253122 C140.530163,61.8639029 139.394278,66.534857 136.058194,69.4984086 C134.053292,71.2794897 131.738248,72.1923069 129.030878,72.1816954 C122.026141,72.1542258 115.021177,72.1762767 108.016364,72.1694281 C106.351408,72.1678477 105.255937,71.3133562 105.040921,69.896228 C104.76028,68.0467364 105.943955,66.7454318 107.951415,66.7429483 C114.718034,66.7343688 121.484652,66.7524309 128.251194,66.7330894 C131.099976,66.7250366 133.197521,65.2935339 133.869735,62.9878218 C134.860371,59.5896491 132.444554,56.2720789 128.779664,56.1943363 C124.397629,56.1013913 120.012283,56.1641574 115.628367,56.1601686 C110.131821,56.1551263 105.468694,52.0877499 105.047996,46.9308481 C104.568897,41.0575551 108.292038,36.0647933 113.895151,35.0950802 C114.453423,34.9984475 115.03367,35.0046188 115.603757,35.0044683 C133.044444,35.000028 150.485131,34.9982218 167.925818,35.0022105 C173.825377,35.0035652 178.511533,39.7216314 178.515973,45.6457995 C178.520564,51.6605042 173.983571,56.1571583 167.903918,56.1597171 C162.757477,56.1618243 157.611036,56.1600934 152.464671,56.1600934 L150.780298,56.1600934 C150.780298,60.6304068 150.81868,64.8707285 150.743947,69.1090934 Z" id="LOGO"></path>
                </g>
            </g>
        </g>
    </g>
</svg>