<?xml version="1.0" encoding="UTF-8"?>
<svg width="63px" height="38px" viewBox="0 0 63 38" version="1.1" xmlns="http://www.w3.org/2000/svg" xmlns:xlink="http://www.w3.org/1999/xlink">
    <!-- Generator: Sketch 41 (35326) - http://www.bohemiancoding.com/sketch -->
    <title>Shape</title>
    <desc>Created with Sketch.</desc>
    <defs></defs>
    <g id="Page-1" stroke="none" stroke-width="1" fill="none" fill-rule="evenodd">
        <g id="2.1-Dress-Game" transform="translate(-31.000000, -272.000000)" fill="#FF0137">
            <g id="App" transform="translate(0.000000, 128.000000)">
                <path d="M92.2346068,161.418905 L36.5863507,161.418905 L51.1727832,146.831643 C51.8206083,146.183817 51.8206083,145.133694 51.1727832,144.485869 C50.5257876,143.838044 49.474005,143.838044 48.8270094,144.485869 L31.4858688,161.827009 C30.8380437,162.474835 30.8380437,163.524958 31.4858688,164.172783 L48.8270094,181.513924 C49.1505072,181.838251 49.5752018,182 49.9998963,182 C50.4245909,182 50.8492854,181.838251 51.1727832,181.513924 C51.8206083,180.866099 51.8206083,179.815975 51.1727832,179.16815 L36.7422932,164.736831 L92.2346068,164.736831 C93.1503544,164.736831 93.8935699,163.993615 93.8935699,163.077868 C93.8935699,162.16212 93.1503544,161.418905 92.2346068,161.418905 Z" id="Shape"></path>
            </g>
        </g>
    </g>
</svg>