<?xml version="1.0" encoding="UTF-8"?>
<svg width="38px" height="38px" viewBox="0 0 38 38" version="1.1" xmlns="http://www.w3.org/2000/svg" xmlns:xlink="http://www.w3.org/1999/xlink">
    <!-- Generator: Sketch 41 (35326) - http://www.bohemiancoding.com/sketch -->
    <title>Shape</title>
    <desc>Created with Sketch.</desc>
    <defs></defs>
    <g id="Page-1" stroke="none" stroke-width="1" fill="none" fill-rule="evenodd">
        <g id="2.1-Dress-Game" transform="translate(-678.000000, -272.000000)" fill="#FF0137">
            <g id="App" transform="translate(0.000000, 128.000000)">
                <path d="M715.504348,144.495652 C714.843478,143.834783 713.797101,143.834783 713.191304,144.495652 L697,160.686957 L680.808696,144.495652 C680.147826,143.834783 679.101449,143.834783 678.495652,144.495652 C677.834783,145.156522 677.834783,146.202899 678.495652,146.808696 L694.686957,163 L678.495652,179.191304 C677.834783,179.852174 677.834783,180.898551 678.495652,181.504348 C678.826087,181.834783 679.266667,182 679.652174,182 C680.037681,182 680.478261,181.834783 680.808696,181.504348 L697,165.313043 L713.191304,181.504348 C713.521739,181.834783 713.962319,182 714.347826,182 C714.733333,182 715.173913,181.834783 715.504348,181.504348 C716.165217,180.843478 716.165217,179.797101 715.504348,179.191304 L699.313043,163 L715.504348,146.808696 C716.165217,146.147826 716.165217,145.156522 715.504348,144.495652 L715.504348,144.495652 Z" id="Shape"></path>
            </g>
        </g>
    </g>
</svg>